# xmcd
#
# Track frame offsets:
#	150
#	29356
#	61766
#	98415
#	133305
#	164607
#	194509
#	221506
#	261021
#	279206
#	298279
#	314921
#	333190
#
# Disc length: 4751
#
# Revision: 1
# Processed by: cddbd v1.5.1PL0 Copyright (c) Steve Scherf et al.
# Submitted via: EasyCDDAExtractor 5.0.5.1
# Normalized: r0:DSETVAR1
#
DISCID=ca128d0d
DTITLE=Various Artist - DEE JAY MIX CLUB MAJ 2003 PART 2
DYEAR=2003
DGENRE=Acapella
TTITLE0=SYLVER - WHY WORRY
TTITLE1=TYFOON - PROMISED LAND
TTITLE2=MARIO PIU - C'ERA UNA VOLTA II WEST
TTITLE3=ALIZEE - J'EN AI MARRE(RMX)
TTITLE4=DANCE NATION - DANCE! (RMX)
TTITLE5=KAROTTE - AS IT COMES
TTITLE6=CUNNIE WILLIAMS - COME BACK TO ME
TTITLE7=CHER - LOVE ONE ANOTHER (RMX)
TTITLE8=SAINT ETIENNE - SOFT LIKE ME(RMX)
TTITLE9=NAS - I CAN
TTITLE10=JANNIEFER LOPEZ - I'M GLAD
TTITLE11=MISSY ELLIOT - BACK IN THE DAY
TTITLE12=MOBY - SUNDAY(THE DAY BEFORE MY BIRTHDAY)
EXTD=
EXTT0=
EXTT1=
EXTT2=
EXTT3=
EXTT4=
EXTT5=
EXTT6=
EXTT7=
EXTT8=
EXTT9=
EXTT10=
EXTT11=
EXTT12=
PLAYORDER=
